<mxfile host="app.diagrams.net" agent="Mozilla/5.0 (Windows NT 10.0; Win64; x64) AppleWebKit/537.36 (KHTML, like Gecko) Chrome/131.0.0.0 Safari/537.36" version="26.0.7">
  <diagram id="R2lEEEUBdFMjLlhIrx00" name="Page-1">
    <mxGraphModel dx="875" dy="442" grid="1" gridSize="10" guides="1" tooltips="1" connect="1" arrows="1" fold="1" page="1" pageScale="1" pageWidth="850" pageHeight="1100" math="0" shadow="0" extFonts="Permanent Marker^https://fonts.googleapis.com/css?family=Permanent+Marker">
      <root>
        <mxCell id="0" />
        <mxCell id="1" parent="0" />
        <mxCell id="bYvqAbV_3UFEIIzgUHgw-31" style="edgeStyle=orthogonalEdgeStyle;rounded=0;orthogonalLoop=1;jettySize=auto;html=1;exitX=1;exitY=0.5;exitDx=0;exitDy=0;entryX=0;entryY=0.5;entryDx=0;entryDy=0;" edge="1" parent="1" source="bYvqAbV_3UFEIIzgUHgw-1" target="bYvqAbV_3UFEIIzgUHgw-30">
          <mxGeometry relative="1" as="geometry" />
        </mxCell>
        <mxCell id="bYvqAbV_3UFEIIzgUHgw-37" value="10, 25" style="edgeLabel;html=1;align=center;verticalAlign=middle;resizable=0;points=[];" vertex="1" connectable="0" parent="bYvqAbV_3UFEIIzgUHgw-31">
          <mxGeometry x="-0.6078" y="-1" relative="1" as="geometry">
            <mxPoint x="10" y="9" as="offset" />
          </mxGeometry>
        </mxCell>
        <mxCell id="bYvqAbV_3UFEIIzgUHgw-1" value="ALUMNO" style="rounded=0;whiteSpace=wrap;html=1;" vertex="1" parent="1">
          <mxGeometry x="180" y="170" width="120" height="60" as="geometry" />
        </mxCell>
        <mxCell id="bYvqAbV_3UFEIIzgUHgw-2" value="ASIGNATURA" style="rounded=0;whiteSpace=wrap;html=1;" vertex="1" parent="1">
          <mxGeometry x="500" y="171" width="120" height="60" as="geometry" />
        </mxCell>
        <mxCell id="bYvqAbV_3UFEIIzgUHgw-3" value="PROFESOR" style="rounded=0;whiteSpace=wrap;html=1;" vertex="1" parent="1">
          <mxGeometry x="500" y="460" width="120" height="60" as="geometry" />
        </mxCell>
        <mxCell id="bYvqAbV_3UFEIIzgUHgw-11" style="edgeStyle=orthogonalEdgeStyle;rounded=0;orthogonalLoop=1;jettySize=auto;html=1;exitX=0.5;exitY=1;exitDx=0;exitDy=0;" edge="1" parent="1" source="bYvqAbV_3UFEIIzgUHgw-5" target="bYvqAbV_3UFEIIzgUHgw-1">
          <mxGeometry relative="1" as="geometry" />
        </mxCell>
        <mxCell id="bYvqAbV_3UFEIIzgUHgw-5" value="Num_Matricula" style="ellipse;whiteSpace=wrap;html=1;" vertex="1" parent="1">
          <mxGeometry x="80" y="90" width="90" height="50" as="geometry" />
        </mxCell>
        <mxCell id="bYvqAbV_3UFEIIzgUHgw-12" style="edgeStyle=orthogonalEdgeStyle;rounded=0;orthogonalLoop=1;jettySize=auto;html=1;exitX=1;exitY=0.5;exitDx=0;exitDy=0;entryX=1;entryY=0.25;entryDx=0;entryDy=0;" edge="1" parent="1" source="bYvqAbV_3UFEIIzgUHgw-6" target="bYvqAbV_3UFEIIzgUHgw-1">
          <mxGeometry relative="1" as="geometry" />
        </mxCell>
        <mxCell id="bYvqAbV_3UFEIIzgUHgw-6" value="Telefono" style="ellipse;whiteSpace=wrap;html=1;" vertex="1" parent="1">
          <mxGeometry x="200" y="90" width="90" height="50" as="geometry" />
        </mxCell>
        <mxCell id="bYvqAbV_3UFEIIzgUHgw-10" style="edgeStyle=orthogonalEdgeStyle;rounded=0;orthogonalLoop=1;jettySize=auto;html=1;exitX=1;exitY=0.5;exitDx=0;exitDy=0;entryX=0;entryY=0.5;entryDx=0;entryDy=0;" edge="1" parent="1" source="bYvqAbV_3UFEIIzgUHgw-7" target="bYvqAbV_3UFEIIzgUHgw-1">
          <mxGeometry relative="1" as="geometry" />
        </mxCell>
        <mxCell id="bYvqAbV_3UFEIIzgUHgw-7" value="Nombre" style="ellipse;whiteSpace=wrap;html=1;" vertex="1" parent="1">
          <mxGeometry x="80" y="170" width="90" height="50" as="geometry" />
        </mxCell>
        <mxCell id="bYvqAbV_3UFEIIzgUHgw-9" style="edgeStyle=orthogonalEdgeStyle;rounded=0;orthogonalLoop=1;jettySize=auto;html=1;entryX=0.5;entryY=1;entryDx=0;entryDy=0;" edge="1" parent="1" source="bYvqAbV_3UFEIIzgUHgw-8" target="bYvqAbV_3UFEIIzgUHgw-1">
          <mxGeometry relative="1" as="geometry" />
        </mxCell>
        <mxCell id="bYvqAbV_3UFEIIzgUHgw-8" value="FechaNac" style="ellipse;whiteSpace=wrap;html=1;" vertex="1" parent="1">
          <mxGeometry x="80" y="260" width="90" height="50" as="geometry" />
        </mxCell>
        <mxCell id="bYvqAbV_3UFEIIzgUHgw-18" style="edgeStyle=orthogonalEdgeStyle;rounded=0;orthogonalLoop=1;jettySize=auto;html=1;exitX=0.5;exitY=1;exitDx=0;exitDy=0;entryX=0.5;entryY=0;entryDx=0;entryDy=0;" edge="1" parent="1" source="bYvqAbV_3UFEIIzgUHgw-13" target="bYvqAbV_3UFEIIzgUHgw-2">
          <mxGeometry relative="1" as="geometry" />
        </mxCell>
        <mxCell id="bYvqAbV_3UFEIIzgUHgw-13" value="Codigo" style="ellipse;whiteSpace=wrap;html=1;" vertex="1" parent="1">
          <mxGeometry x="515" y="100" width="90" height="50" as="geometry" />
        </mxCell>
        <mxCell id="bYvqAbV_3UFEIIzgUHgw-17" style="edgeStyle=orthogonalEdgeStyle;rounded=0;orthogonalLoop=1;jettySize=auto;html=1;exitX=0;exitY=0.5;exitDx=0;exitDy=0;entryX=1;entryY=0.5;entryDx=0;entryDy=0;" edge="1" parent="1" source="bYvqAbV_3UFEIIzgUHgw-14" target="bYvqAbV_3UFEIIzgUHgw-2">
          <mxGeometry relative="1" as="geometry" />
        </mxCell>
        <mxCell id="bYvqAbV_3UFEIIzgUHgw-14" value="Nombre" style="ellipse;whiteSpace=wrap;html=1;" vertex="1" parent="1">
          <mxGeometry x="650" y="171" width="90" height="50" as="geometry" />
        </mxCell>
        <mxCell id="bYvqAbV_3UFEIIzgUHgw-16" style="edgeStyle=orthogonalEdgeStyle;rounded=0;orthogonalLoop=1;jettySize=auto;html=1;entryX=0.5;entryY=1;entryDx=0;entryDy=0;" edge="1" parent="1" source="bYvqAbV_3UFEIIzgUHgw-15" target="bYvqAbV_3UFEIIzgUHgw-2">
          <mxGeometry relative="1" as="geometry">
            <Array as="points">
              <mxPoint x="620" y="275" />
              <mxPoint x="620" y="231" />
            </Array>
          </mxGeometry>
        </mxCell>
        <mxCell id="bYvqAbV_3UFEIIzgUHgw-15" value="Id_Profesor" style="ellipse;whiteSpace=wrap;html=1;" vertex="1" parent="1">
          <mxGeometry x="640" y="250" width="80" height="50" as="geometry" />
        </mxCell>
        <mxCell id="bYvqAbV_3UFEIIzgUHgw-24" style="edgeStyle=orthogonalEdgeStyle;rounded=0;orthogonalLoop=1;jettySize=auto;html=1;" edge="1" parent="1" source="bYvqAbV_3UFEIIzgUHgw-19" target="bYvqAbV_3UFEIIzgUHgw-3">
          <mxGeometry relative="1" as="geometry" />
        </mxCell>
        <mxCell id="bYvqAbV_3UFEIIzgUHgw-19" value="Id_P" style="ellipse;whiteSpace=wrap;html=1;" vertex="1" parent="1">
          <mxGeometry x="380" y="470" width="80" height="50" as="geometry" />
        </mxCell>
        <mxCell id="bYvqAbV_3UFEIIzgUHgw-20" value="NIF_P" style="ellipse;whiteSpace=wrap;html=1;" vertex="1" parent="1">
          <mxGeometry x="430" y="540" width="90" height="50" as="geometry" />
        </mxCell>
        <mxCell id="bYvqAbV_3UFEIIzgUHgw-27" value="" style="edgeStyle=orthogonalEdgeStyle;rounded=0;orthogonalLoop=1;jettySize=auto;html=1;" edge="1" parent="1" source="bYvqAbV_3UFEIIzgUHgw-21" target="bYvqAbV_3UFEIIzgUHgw-3">
          <mxGeometry relative="1" as="geometry" />
        </mxCell>
        <mxCell id="bYvqAbV_3UFEIIzgUHgw-21" value="Nombre" style="ellipse;whiteSpace=wrap;html=1;" vertex="1" parent="1">
          <mxGeometry x="530" y="540" width="90" height="50" as="geometry" />
        </mxCell>
        <mxCell id="bYvqAbV_3UFEIIzgUHgw-28" style="edgeStyle=orthogonalEdgeStyle;rounded=0;orthogonalLoop=1;jettySize=auto;html=1;entryX=1;entryY=1;entryDx=0;entryDy=0;" edge="1" parent="1" source="bYvqAbV_3UFEIIzgUHgw-22" target="bYvqAbV_3UFEIIzgUHgw-3">
          <mxGeometry relative="1" as="geometry" />
        </mxCell>
        <mxCell id="bYvqAbV_3UFEIIzgUHgw-22" value="Especialidad" style="ellipse;whiteSpace=wrap;html=1;" vertex="1" parent="1">
          <mxGeometry x="650" y="520" width="90" height="50" as="geometry" />
        </mxCell>
        <mxCell id="bYvqAbV_3UFEIIzgUHgw-29" style="edgeStyle=orthogonalEdgeStyle;rounded=0;orthogonalLoop=1;jettySize=auto;html=1;entryX=1;entryY=0.25;entryDx=0;entryDy=0;" edge="1" parent="1" source="bYvqAbV_3UFEIIzgUHgw-23" target="bYvqAbV_3UFEIIzgUHgw-3">
          <mxGeometry relative="1" as="geometry" />
        </mxCell>
        <mxCell id="bYvqAbV_3UFEIIzgUHgw-23" value="Telefono" style="ellipse;whiteSpace=wrap;html=1;" vertex="1" parent="1">
          <mxGeometry x="650" y="450" width="90" height="50" as="geometry" />
        </mxCell>
        <mxCell id="bYvqAbV_3UFEIIzgUHgw-26" style="edgeStyle=orthogonalEdgeStyle;rounded=0;orthogonalLoop=1;jettySize=auto;html=1;entryX=0.103;entryY=0.956;entryDx=0;entryDy=0;entryPerimeter=0;" edge="1" parent="1" source="bYvqAbV_3UFEIIzgUHgw-20" target="bYvqAbV_3UFEIIzgUHgw-3">
          <mxGeometry relative="1" as="geometry" />
        </mxCell>
        <mxCell id="bYvqAbV_3UFEIIzgUHgw-32" style="edgeStyle=orthogonalEdgeStyle;rounded=0;orthogonalLoop=1;jettySize=auto;html=1;exitX=1;exitY=0.5;exitDx=0;exitDy=0;entryX=0;entryY=0.5;entryDx=0;entryDy=0;" edge="1" parent="1" source="bYvqAbV_3UFEIIzgUHgw-30" target="bYvqAbV_3UFEIIzgUHgw-2">
          <mxGeometry relative="1" as="geometry" />
        </mxCell>
        <mxCell id="bYvqAbV_3UFEIIzgUHgw-30" value="matriculado en" style="rhombus;whiteSpace=wrap;html=1;" vertex="1" parent="1">
          <mxGeometry x="360" y="160.5" width="80" height="80" as="geometry" />
        </mxCell>
        <mxCell id="bYvqAbV_3UFEIIzgUHgw-34" style="edgeStyle=orthogonalEdgeStyle;rounded=0;orthogonalLoop=1;jettySize=auto;html=1;entryX=0.5;entryY=1;entryDx=0;entryDy=0;" edge="1" parent="1" source="bYvqAbV_3UFEIIzgUHgw-33" target="bYvqAbV_3UFEIIzgUHgw-2">
          <mxGeometry relative="1" as="geometry" />
        </mxCell>
        <mxCell id="bYvqAbV_3UFEIIzgUHgw-35" style="edgeStyle=orthogonalEdgeStyle;rounded=0;orthogonalLoop=1;jettySize=auto;html=1;" edge="1" parent="1" source="bYvqAbV_3UFEIIzgUHgw-33" target="bYvqAbV_3UFEIIzgUHgw-3">
          <mxGeometry relative="1" as="geometry" />
        </mxCell>
        <mxCell id="bYvqAbV_3UFEIIzgUHgw-33" value="imparte" style="rhombus;whiteSpace=wrap;html=1;" vertex="1" parent="1">
          <mxGeometry x="520" y="320" width="80" height="80" as="geometry" />
        </mxCell>
        <mxCell id="bYvqAbV_3UFEIIzgUHgw-36" value="1,N" style="text;html=1;align=center;verticalAlign=middle;resizable=0;points=[];autosize=1;strokeColor=none;fillColor=none;" vertex="1" parent="1">
          <mxGeometry x="460" y="178" width="40" height="30" as="geometry" />
        </mxCell>
        <mxCell id="bYvqAbV_3UFEIIzgUHgw-38" value="25, N" style="edgeLabel;html=1;align=center;verticalAlign=middle;resizable=0;points=[];" vertex="1" connectable="0" parent="1">
          <mxGeometry x="410" y="149.5" as="geometry">
            <mxPoint x="-10" y="-2" as="offset" />
          </mxGeometry>
        </mxCell>
        <mxCell id="bYvqAbV_3UFEIIzgUHgw-39" value="1,1" style="text;html=1;align=center;verticalAlign=middle;resizable=0;points=[];autosize=1;strokeColor=none;fillColor=none;" vertex="1" parent="1">
          <mxGeometry x="515" y="430" width="40" height="30" as="geometry" />
        </mxCell>
        <mxCell id="bYvqAbV_3UFEIIzgUHgw-41" value="0, N" style="text;html=1;align=center;verticalAlign=middle;resizable=0;points=[];autosize=1;strokeColor=none;fillColor=none;" vertex="1" parent="1">
          <mxGeometry x="510" y="231" width="50" height="30" as="geometry" />
        </mxCell>
        <mxCell id="bYvqAbV_3UFEIIzgUHgw-43" value="" style="edgeStyle=orthogonalEdgeStyle;rounded=0;orthogonalLoop=1;jettySize=auto;html=1;" edge="1" parent="1" source="bYvqAbV_3UFEIIzgUHgw-42" target="bYvqAbV_3UFEIIzgUHgw-30">
          <mxGeometry relative="1" as="geometry" />
        </mxCell>
        <mxCell id="bYvqAbV_3UFEIIzgUHgw-42" value="Curso" style="ellipse;whiteSpace=wrap;html=1;" vertex="1" parent="1">
          <mxGeometry x="355" y="280" width="90" height="50" as="geometry" />
        </mxCell>
      </root>
    </mxGraphModel>
  </diagram>
</mxfile>
